<svg width="47" height="46" viewBox="0 0 47 46" fill="none" xmlns="http://www.w3.org/2000/svg">
<g filter="url(#filter0_d_14_191)">
<path d="M22.9167 5.5C31.4417 5.5 38.6467 11.055 41.195 18.7367L36.85 20.1667C34.925 14.3183 29.4067 10.0833 22.9167 10.0833C19.3233 10.0833 16.0783 11.4033 13.53 13.53L18.3333 18.3333H5.5V5.5L10.2667 10.2667C13.6583 7.33333 18.0583 5.5 22.9167 5.5ZM18.3333 22V40.3333H14.6667V25.6667H11V22H18.3333ZM33 25.6667V36.6667C33 38.7017 31.3683 40.3333 29.3333 40.3333H25.6667C24.6942 40.3333 23.7616 39.947 23.0739 39.2594C22.3863 38.5718 22 37.6391 22 36.6667V25.6667C22 24.6942 22.3863 23.7616 23.0739 23.0739C23.7616 22.3863 24.6942 22 25.6667 22H29.3333C30.3058 22 31.2384 22.3863 31.9261 23.0739C32.6137 23.7616 33 24.6942 33 25.6667ZM25.6667 25.6667V36.6667H29.3333V25.6667H25.6667Z" fill="#CCCCBB"/>
</g>
<defs>
<filter id="filter0_d_14_191" x="2.5" y="2.5" width="43.695" height="42.8333" filterUnits="userSpaceOnUse" color-interpolation-filters="sRGB">
<feFlood flood-opacity="0" result="BackgroundImageFix"/>
<feColorMatrix in="SourceAlpha" type="matrix" values="0 0 0 0 0 0 0 0 0 0 0 0 0 0 0 0 0 0 127 0" result="hardAlpha"/>
<feOffset dx="1" dy="1"/>
<feGaussianBlur stdDeviation="2"/>
<feComposite in2="hardAlpha" operator="out"/>
<feColorMatrix type="matrix" values="0 0 0 0 0.517647 0 0 0 0 0.556863 0 0 0 0 0.317647 0 0 0 0.5 0"/>
<feBlend mode="normal" in2="BackgroundImageFix" result="effect1_dropShadow_14_191"/>
<feBlend mode="normal" in="SourceGraphic" in2="effect1_dropShadow_14_191" result="shape"/>
</filter>
</defs>
</svg>
